<?xml version="1.0" encoding="UTF-8"?>
<svg xmlns="http://www.w3.org/2000/svg" xmlns:xlink="http://www.w3.org/1999/xlink" width="595.28pt" height="396.85pt" viewBox="0 0 595.28 396.85" version="1.1">
<defs>
<clipPath id="clip1">
  <path d="M 517 279 L 595.28125 279 L 595.28125 356 L 517 356 Z M 517 279 "/>
</clipPath>
<clipPath id="clip2">
  <path d="M 534 303 L 595.28125 303 L 595.28125 385 L 534 385 Z M 534 303 "/>
</clipPath>
<clipPath id="clip3">
  <path d="M 396 317 L 545 317 L 545 396.851563 L 396 396.851563 Z M 396 317 "/>
</clipPath>
<clipPath id="clip4">
  <path d="M 0 361 L 595.28125 361 L 595.28125 396.851563 L 0 396.851563 Z M 0 361 "/>
</clipPath>
</defs>
<g id="surface1">
<path style=" stroke:none;fill-rule:nonzero;fill:rgb(64.646912%,86.326599%,94.139099%);fill-opacity:1;" d="M 0 0 L 0 396.847656 L 595.277344 396.847656 L 595.277344 0 L 0 0 "/>
<path style=" stroke:none;fill-rule:nonzero;fill:rgb(84.764099%,92.96875%,93.359375%);fill-opacity:1;" d="M 286.140625 327.144531 C 284.644531 326.84375 283.15625 326.695313 281.6875 326.667969 C 282.09375 325.519531 282.425781 324.328125 282.671875 323.09375 C 285.519531 308.816406 276.257813 294.929688 261.980469 292.082031 C 249.808594 289.648438 237.929688 296.027344 232.921875 306.808594 C 230.003906 304.210938 226.382813 302.324219 222.273438 301.503906 C 213.296875 299.710938 204.507813 303.480469 199.449219 310.429688 C 197.992188 309.839844 196.464844 309.375 194.867188 309.054688 C 180.972656 306.28125 167.464844 315.292969 164.691406 329.183594 C 161.917969 343.074219 170.933594 356.585938 184.824219 359.359375 C 189.597656 360.3125 194.328125 359.871094 198.589844 358.320313 C 198.570313 358.417969 198.546875 358.511719 198.527344 358.609375 C 195.867188 371.9375 204.511719 374.894531 217.835938 377.554688 C 226.734375 379.328125 235.464844 376.058594 241.078125 369.722656 C 243.164063 371.457031 245.699219 372.714844 248.550781 373.28125 C 256.976563 374.964844 265.1875 370.050781 267.851563 362.109375 C 270.402344 363.765625 273.300781 364.980469 276.460938 365.613281 C 289.847656 368.28125 302.859375 369.601563 305.53125 356.214844 C 308.203125 342.832031 299.519531 329.816406 286.140625 327.144531 "/>
<path style=" stroke:none;fill-rule:nonzero;fill:rgb(84.764099%,92.96875%,93.359375%);fill-opacity:1;" d="M 521.367188 331.285156 C 519.871094 330.984375 518.390625 330.835938 516.917969 330.8125 C 517.320313 329.65625 517.65625 328.46875 517.898438 327.234375 C 520.75 312.957031 511.488281 299.070313 497.210938 296.222656 C 485.039063 293.789063 473.15625 300.167969 468.152344 310.949219 C 465.234375 308.351563 461.609375 306.46875 457.503906 305.644531 C 448.523438 303.851563 439.734375 307.621094 434.679688 314.570313 C 433.222656 313.980469 431.691406 313.515625 430.097656 313.195313 C 416.203125 310.421875 402.691406 319.433594 399.921875 333.324219 C 397.148438 347.214844 406.160156 360.726563 420.054688 363.5 C 424.828125 364.453125 429.558594 364.011719 433.820313 362.464844 C 433.800781 362.558594 433.773438 362.652344 433.757813 362.75 C 431.097656 376.074219 439.738281 379.035156 453.0625 381.691406 C 461.964844 383.46875 470.695313 380.199219 476.308594 373.863281 C 478.394531 375.597656 480.929688 376.855469 483.777344 377.421875 C 492.207031 379.105469 500.417969 374.191406 503.082031 366.25 C 505.632813 367.90625 508.527344 369.121094 511.691406 369.753906 C 525.074219 372.421875 538.089844 373.742188 540.765625 360.355469 C 543.4375 346.972656 534.75 333.957031 521.367188 331.285156 "/>
<path style=" stroke:none;fill-rule:nonzero;fill:rgb(84.764099%,92.96875%,93.359375%);fill-opacity:1;" d="M 395.953125 344.527344 C 396.1875 344.449219 396.414063 344.363281 396.644531 344.277344 C 396.6875 344.738281 396.761719 345.199219 396.847656 345.65625 C 396.566406 345.265625 396.269531 344.894531 395.953125 344.527344 Z M 429.507813 351.421875 C 428.484375 350.988281 427.445313 350.699219 426.398438 350.523438 C 426.699219 349.996094 426.972656 349.441406 427.214844 348.867188 C 430.632813 340.75 426.820313 331.394531 418.699219 327.980469 C 414.234375 326.097656 409.394531 326.410156 405.378906 328.417969 C 404.519531 323.878906 401.480469 319.835938 396.898438 317.902344 C 391.335938 315.566406 385.128906 317.023438 381.15625 321.101563 C 379.804688 319.808594 378.199219 318.734375 376.371094 317.964844 C 368.328125 314.582031 359.066406 318.355469 355.683594 326.394531 C 352.300781 334.4375 356.070313 343.699219 364.113281 347.085938 C 365.609375 347.714844 367.148438 348.097656 368.683594 348.25 C 368.585938 348.460938 368.484375 348.671875 368.394531 348.886719 C 364.878906 357.246094 368.804688 356.871094 377.15625 360.386719 C 382.015625 362.433594 387.292969 361.960938 391.5625 359.574219 C 392.996094 362.777344 395.609375 365.46875 399.105469 366.9375 C 404.449219 369.191406 410.390625 367.964844 414.414063 364.292969 C 415.617188 365.457031 417.050781 366.429688 418.6875 367.117188 C 425.785156 370.101563 433.960938 366.777344 436.945313 359.679688 C 439.933594 352.582031 436.605469 354.40625 429.507813 351.421875 "/>
<path style=" stroke:none;fill-rule:nonzero;fill:rgb(84.764099%,92.96875%,93.359375%);fill-opacity:1;" d="M 201.636719 324.714844 C 200.695313 324.207031 199.734375 323.796875 198.757813 323.472656 C 199.265625 322.789063 199.734375 322.058594 200.152344 321.28125 C 205.019531 312.316406 201.691406 301.097656 192.722656 296.230469 C 185.074219 292.082031 175.796875 293.894531 170.210938 300.074219 C 168.796875 297.730469 166.761719 295.71875 164.179688 294.316406 C 158.539063 291.261719 151.871094 291.964844 147.046875 295.566406 C 146.191406 294.871094 145.265625 294.242188 144.261719 293.699219 C 135.53125 288.964844 124.621094 292.203125 119.890625 300.929688 C 115.152344 309.65625 118.390625 320.574219 127.117188 325.304688 C 130.117188 326.933594 133.378906 327.617188 136.554688 327.460938 L 136.449219 327.640625 C 131.910156 336.015625 135.015625 346.480469 143.390625 351.019531 C 148.980469 354.054688 155.503906 353.671875 160.574219 350.589844 C 161.609375 352.183594 163.050781 353.550781 164.84375 354.519531 C 170.136719 357.394531 176.652344 355.804688 180.078125 351.039063 C 181.441406 352.675781 183.132813 354.089844 185.117188 355.164063 C 193.53125 359.726563 204.046875 356.605469 208.605469 348.199219 C 213.164063 339.789063 210.046875 329.273438 201.636719 324.714844 "/>
<path style=" stroke:none;fill-rule:nonzero;fill:rgb(84.764099%,92.96875%,93.359375%);fill-opacity:1;" d="M 358.933594 333.582031 C 357.929688 333.257813 356.914063 333.035156 355.90625 332.902344 C 356.273438 332.140625 356.601563 331.347656 356.867188 330.515625 C 359.960938 320.90625 354.679688 310.601563 345.066406 307.507813 C 336.871094 304.871094 328.183594 308.324219 323.878906 315.355469 C 322.074219 313.332031 319.726563 311.75 316.957031 310.859375 C 310.914063 308.910156 304.558594 310.8125 300.527344 315.199219 C 299.570313 314.679688 298.554688 314.234375 297.480469 313.890625 C 288.125 310.878906 278.101563 316.019531 275.09375 325.371094 C 272.082031 334.722656 277.222656 344.746094 286.574219 347.757813 C 289.789063 348.789063 293.085938 348.863281 296.144531 348.132813 L 296.074219 348.324219 C 293.1875 357.296875 298.117188 356.90625 307.089844 359.792969 C 313.078125 361.722656 319.355469 370.164063 323.722656 366.238281 C 325.023438 367.601563 326.671875 358.667969 328.589844 359.285156 C 334.265625 361.113281 340.3125 368.375 342.773438 363.117188 C 344.398438 364.457031 346.300781 365.523438 348.429688 366.210938 C 357.4375 369.109375 367.097656 364.15625 369.996094 355.148438 C 372.898438 346.136719 367.945313 336.480469 358.933594 333.582031 "/>
<path style=" stroke:none;fill-rule:nonzero;fill:rgb(84.764099%,92.96875%,93.359375%);fill-opacity:1;" d="M 120.171875 303.90625 C 121.046875 302.617188 121.75 301.164063 122.234375 299.570313 C 124.539063 291.96875 120.945313 284.148438 114.207031 282.105469 C 108.105469 280.25 101.519531 283.769531 98.613281 290.089844 C 92.941406 289.910156 87.425781 294.03125 85.496094 300.378906 C 83.929688 305.542969 85.15625 310.808594 88.261719 314.210938 C 85.496094 315.261719 83.152344 317.714844 82.15625 321.003906 C 80.542969 326.300781 83.050781 331.75 87.746094 333.171875 C 88.160156 333.300781 88.578125 333.382813 88.996094 333.4375 L 88.960938 333.542969 C 87.226563 339.242188 89.921875 345.109375 94.980469 346.640625 C 100.035156 348.175781 105.535156 344.800781 107.265625 339.101563 C 107.578125 338.066406 107.742188 337.03125 107.777344 336.015625 C 107.90625 336.058594 108.035156 336.101563 108.164063 336.144531 C 116.246094 338.601563 125.046875 333.195313 127.8125 324.078125 C 130.34375 315.742188 126.953125 307.183594 120.171875 303.90625 "/>
<g clip-path="url(#clip1)" clip-rule="nonzero">
<path style=" stroke:none;fill-rule:nonzero;fill:rgb(84.764099%,92.96875%,93.359375%);fill-opacity:1;" d="M 573.9375 279.699219 C 565.730469 281.300781 559.417969 286.796875 557.007813 293.515625 C 553.566406 290.496094 548.507813 289.0625 543.28125 290.082031 C 534.863281 291.722656 529.222656 299.105469 530.679688 306.566406 C 530.804688 307.226563 530.996094 307.859375 531.226563 308.46875 L 531.054688 308.496094 C 521.992188 310.261719 515.921875 318.207031 517.488281 326.238281 C 519.054688 334.273438 527.667969 339.355469 536.726563 337.589844 C 538.367188 337.265625 539.902344 336.742188 541.320313 336.050781 C 541.355469 336.261719 541.386719 336.464844 541.425781 336.667969 C 543.929688 349.519531 557.707031 357.644531 572.195313 354.820313 C 585.441406 352.230469 594.695313 341.382813 594.265625 329.722656 C 594.597656 329.757813 594.9375 329.773438 595.277344 329.792969 L 595.277344 286.714844 C 590.59375 281.023438 582.433594 278.046875 573.9375 279.699219 "/>
</g>
<path style=" stroke:none;fill-rule:nonzero;fill:rgb(84.764099%,92.96875%,93.359375%);fill-opacity:1;" d="M 556.351563 339.316406 C 552.480469 331.421875 542.839844 326.863281 532.75 328.828125 C 524.542969 330.433594 518.230469 335.929688 515.816406 342.644531 C 512.378906 339.625 507.316406 338.191406 502.09375 339.214844 C 493.675781 340.851563 488.03125 348.234375 489.488281 355.699219 C 489.617188 356.359375 489.808594 356.988281 490.035156 357.601563 L 489.863281 357.628906 C 480.804688 359.394531 474.730469 357.339844 476.300781 365.371094 C 477.867188 373.40625 486.480469 378.484375 495.535156 376.71875 C 497.179688 376.398438 498.714844 375.871094 500.132813 375.183594 C 500.167969 375.390625 500.195313 375.59375 500.238281 375.800781 C 502.738281 388.652344 516.519531 396.773438 531.007813 393.949219 C 544.253906 391.363281 553.507813 380.515625 553.074219 368.851563 C 555.472656 369.113281 557.976563 369.027344 560.507813 368.53125 C 572.585938 366.175781 580.6875 365.582031 578.59375 354.871094 C 576.703125 345.175781 567.113281 338.710938 556.351563 339.316406 "/>
<path style=" stroke:none;fill-rule:nonzero;fill:rgb(84.764099%,92.96875%,93.359375%);fill-opacity:1;" d="M 9.097656 359.164063 C 10.617188 359.125 12.101563 358.9375 13.539063 358.636719 C 13.402344 359.851563 13.34375 361.085938 13.375 362.34375 C 13.765625 376.894531 25.878906 378.378906 40.433594 377.992188 C 52.839844 377.660156 63.007813 378.804688 65.496094 367.183594 C 68.921875 369.066406 72.867188 360.101563 77.058594 359.988281 C 86.210938 359.746094 93.945313 364.121094 97.332031 356.222656 C 98.882813 356.472656 100.480469 356.589844 102.105469 356.546875 C 116.269531 356.167969 127.4375 344.382813 127.0625 330.222656 C 126.683594 316.058594 114.894531 304.886719 100.734375 305.265625 C 95.867188 305.394531 91.351563 306.875 87.539063 309.332031 C 87.539063 309.230469 87.539063 309.136719 87.539063 309.035156 C 87.175781 295.453125 75.871094 284.738281 62.289063 285.105469 C 53.21875 285.347656 45.429688 290.472656 41.363281 297.894531 C 38.945313 296.667969 36.191406 296.003906 33.285156 296.082031 C 24.695313 296.3125 17.78125 302.929688 16.945313 311.261719 C 14.09375 310.210938 11 309.671875 7.773438 309.757813 C 5.046875 309.832031 2.433594 310.351563 0 311.234375 L 0 357.6875 C 2.835938 358.71875 5.902344 359.25 9.097656 359.164063 "/>
<path style=" stroke:none;fill-rule:nonzero;fill:rgb(100%,100%,100%);fill-opacity:1;" d="M 283.484375 367.449219 C 284.367188 365.746094 285.035156 363.992188 285.519531 362.21875 C 284.316406 361.605469 283.085938 361.113281 281.835938 360.714844 C 282.433594 361.878906 282.988281 368.410156 283.484375 367.449219 "/>
<path style=" stroke:none;fill-rule:nonzero;fill:rgb(100%,100%,100%);fill-opacity:1;" d="M 285.695313 362.296875 L 285.519531 362.21875 C 285.035156 363.992188 284.367188 365.746094 283.484375 367.449219 C 282.988281 368.410156 282.433594 361.878906 281.835938 360.714844 C 281.742188 360.683594 281.648438 360.644531 281.550781 360.613281 C 281.648438 360.476563 281.742188 360.53125 281.835938 360.714844 C 283.085938 361.113281 284.316406 361.605469 285.519531 362.21875 C 288.703125 350.492188 283.417969 337.730469 272.1875 331.917969 C 261.164063 326.214844 247.980469 329.054688 240.1875 338.027344 C 238.105469 334.722656 235.144531 331.90625 231.421875 329.980469 C 223.292969 325.777344 213.800781 326.964844 207.023438 332.242188 C 205.78125 331.273438 204.441406 330.402344 202.996094 329.652344 C 190.414063 323.140625 174.9375 328.0625 168.429688 340.640625 C 161.921875 353.226563 166.839844 358.703125 179.421875 365.214844 C 183.746094 367.449219 188.414063 368.339844 192.9375 368.027344 L 192.796875 368.285156 C 186.554688 380.355469 191.273438 375.195313 203.34375 381.441406 C 211.398438 385.609375 220.695313 384.886719 227.84375 380.351563 C 229.367188 382.59375 231.457031 384.503906 234.039063 385.839844 C 241.671875 389.789063 250.921875 387.339844 255.679688 380.445313 C 257.671875 382.742188 260.117188 384.710938 262.980469 386.191406 C 275.105469 392.464844 290.015625 400.726563 296.285156 388.601563 C 302.558594 376.480469 297.816406 368.570313 285.695313 362.296875 "/>
<path style=" stroke:none;fill-rule:nonzero;fill:rgb(100%,100%,100%);fill-opacity:1;" d="M 373.125 363.609375 C 373.273438 363.449219 373.421875 363.289063 373.5625 363.125 C 373.785156 363.46875 374.03125 363.800781 374.289063 364.125 C 373.910156 363.933594 373.519531 363.765625 373.125 363.609375 Z M 402.257813 355.175781 C 401.28125 355.257813 400.347656 355.460938 399.449219 355.753906 C 399.46875 355.214844 399.453125 354.667969 399.40625 354.117188 C 398.738281 346.347656 391.894531 340.589844 384.125 341.265625 C 379.851563 341.628906 376.183594 343.867188 373.867188 347.101563 C 371.320313 343.894531 367.273438 341.980469 362.890625 342.355469 C 357.566406 342.816406 353.304688 346.519531 351.871094 351.351563 C 350.277344 350.898438 348.578125 350.714844 346.828125 350.867188 C 339.132813 351.527344 333.429688 358.308594 334.09375 366.003906 C 334.757813 373.699219 341.53125 369.402344 349.230469 368.738281 C 350.660156 368.613281 352.023438 368.28125 353.289063 367.765625 C 353.300781 367.972656 353.3125 368.179688 353.328125 368.382813 C 354.019531 376.382813 361.0625 382.308594 369.058594 381.621094 C 373.707031 381.222656 377.648438 378.671875 380.007813 375.042969 C 382.457031 376.964844 385.609375 377.992188 388.953125 377.707031 C 394.070313 377.265625 398.222656 373.855469 399.859375 369.320313 C 401.285156 369.734375 402.808594 369.902344 404.375 369.769531 C 411.164063 369.183594 416.199219 373.207031 415.613281 366.410156 C 415.027344 359.621094 409.050781 354.589844 402.257813 355.175781 "/>
<path style=" stroke:none;fill-rule:nonzero;fill:rgb(100%,100%,100%);fill-opacity:1;" d="M 189.113281 347.070313 C 191.171875 341.40625 188.632813 335.199219 183.410156 332.515625 C 184.828125 330.921875 185.976563 329.042969 186.75 326.917969 C 190.015625 317.925781 185.375 307.988281 176.382813 304.722656 C 167.394531 301.457031 157.457031 306.097656 154.1875 315.089844 C 153.824219 316.09375 153.5625 317.105469 153.390625 318.121094 C 152.636719 317.71875 151.84375 317.363281 151.015625 317.058594 C 141.425781 313.578125 130.820313 318.527344 127.339844 328.117188 C 124.367188 336.296875 127.53125 345.203125 134.472656 349.8125 C 132.359375 351.558594 130.671875 353.871094 129.667969 356.628906 C 127.480469 362.660156 129.160156 359.152344 133.4375 363.390625 C 132.878906 364.339844 132.394531 365.347656 132.003906 366.417969 C 128.609375 375.75 133.429688 386.066406 142.761719 389.457031 C 152.09375 392.847656 162.40625 388.03125 165.796875 378.699219 C 166.964844 375.492188 167.15625 372.164063 166.535156 369.046875 L 166.730469 369.125 C 175.679688 372.375 185.570313 377.757813 188.824219 368.804688 C 190.996094 362.824219 189.652344 356.429688 185.855469 351.871094 C 187.277344 350.609375 188.417969 348.984375 189.113281 347.070313 "/>
<g clip-path="url(#clip2)" clip-rule="nonzero">
<path style=" stroke:none;fill-rule:nonzero;fill:rgb(100%,100%,100%);fill-opacity:1;" d="M 578.488281 310.964844 C 577.835938 311.851563 577.277344 312.78125 576.808594 313.738281 C 576.179688 313.117188 575.5 312.53125 574.769531 311.988281 C 566.28125 305.726563 554.320313 307.523438 548.054688 316.011719 C 542.710938 323.246094 543.238281 333.003906 548.765625 339.605469 C 546.160156 340.71875 543.8125 342.515625 542.007813 344.957031 C 538.066406 350.292969 537.832031 357.222656 540.832031 362.675781 C 539.996094 363.449219 539.222656 364.308594 538.519531 365.261719 C 532.421875 373.515625 534.175781 375.148438 542.433594 381.25 C 550.6875 387.34375 562.324219 385.59375 568.421875 377.335938 C 570.515625 374.5 571.6875 371.257813 571.980469 367.984375 L 572.148438 368.117188 C 579.324219 373.414063 589.144531 372.515625 595.277344 366.417969 L 595.277344 303.855469 C 589.019531 303.019531 582.507813 305.523438 578.488281 310.964844 "/>
</g>
<path style=" stroke:none;fill-rule:nonzero;fill:rgb(100%,100%,100%);fill-opacity:1;" d="M 271.308594 390.148438 C 270.054688 390.507813 270.015625 391.316406 271.308594 390.148438 "/>
<path style=" stroke:none;fill-rule:nonzero;fill:rgb(100%,100%,100%);fill-opacity:1;" d="M 335.757813 341.394531 C 328.117188 335.808594 317.394531 337.472656 311.808594 345.113281 C 311.183594 345.964844 310.65625 346.855469 310.210938 347.773438 C 309.605469 347.183594 308.949219 346.625 308.246094 346.109375 C 300.097656 340.148438 288.65625 341.921875 282.695313 350.074219 C 277.613281 357.023438 278.160156 356.359375 283.480469 362.65625 C 280.992188 363.730469 278.746094 365.460938 277.03125 367.808594 C 273.285156 372.933594 273.089844 379.5625 275.984375 384.769531 C 275.1875 385.519531 274.449219 386.34375 273.78125 387.253906 C 272.695313 388.738281 271.875 389.636719 271.308594 390.148438 C 272.441406 389.824219 274.574219 389.875 277.640625 392.113281 C 285.566406 397.914063 296.699219 396.1875 302.496094 388.257813 C 304.492188 385.53125 305.597656 382.429688 305.867188 379.292969 L 306.027344 379.417969 C 313.636719 384.980469 324.3125 399.324219 329.871094 391.71875 C 333.589844 386.636719 334.078125 384.191406 331.730469 378.808594 C 333.433594 378.003906 334.964844 376.773438 336.152344 375.148438 C 339.671875 370.335938 338.976563 363.734375 334.757813 359.742188 C 336.542969 358.625 338.152344 367.152344 339.476563 365.351563 C 345.0625 357.710938 343.398438 346.984375 335.757813 341.394531 "/>
<path style=" stroke:none;fill-rule:nonzero;fill:rgb(100%,100%,100%);fill-opacity:1;" d="M 133.644531 334.726563 C 132.8125 334.039063 131.917969 333.488281 130.992188 333.066406 C 131.082031 332.964844 131.171875 332.863281 131.261719 332.761719 C 136.636719 326.242188 135.03125 316.042969 127.683594 309.980469 C 120.960938 304.4375 111.761719 304.277344 106.125 309.273438 C 105.269531 307.972656 104.199219 306.761719 102.917969 305.703125 C 96.789063 300.648438 88.1875 300.953125 83.707031 306.390625 C 79.648438 311.308594 80.359375 318.738281 85.074219 323.855469 C 82.726563 329.023438 84.410156 335.699219 89.527344 339.917969 C 93.691406 343.351563 99.019531 344.246094 103.355469 342.691406 C 103.265625 345.644531 104.621094 348.757813 107.273438 350.941406 C 111.546875 354.464844 117.539063 354.25 120.664063 350.464844 C 120.9375 350.128906 121.171875 349.773438 121.386719 349.410156 L 121.472656 349.484375 C 126.066406 353.273438 132.515625 353.042969 135.878906 348.96875 C 139.238281 344.894531 138.238281 338.515625 133.644531 334.726563 "/>
<path style=" stroke:none;fill-rule:nonzero;fill:rgb(100%,100%,100%);fill-opacity:1;" d="M 190.839844 167.054688 C 190.871094 166.964844 190.894531 166.871094 190.917969 166.777344 C 191.074219 166.867188 191.234375 166.953125 191.398438 167.027344 C 191.214844 167.027344 191.027344 167.039063 190.839844 167.054688 Z M 200.664063 158.027344 C 200.292969 158.25 199.964844 158.515625 199.671875 158.804688 C 199.574219 158.589844 199.457031 158.378906 199.332031 158.171875 C 197.550781 155.238281 193.730469 154.3125 190.800781 156.097656 C 189.1875 157.078125 188.179688 158.675781 187.902344 160.40625 C 186.269531 159.640625 184.300781 159.683594 182.648438 160.6875 C 180.640625 161.910156 179.6875 164.203125 180.070313 166.386719 C 179.351563 166.519531 178.648438 166.78125 177.988281 167.183594 C 175.089844 168.949219 174.167969 172.734375 175.9375 175.636719 C 177.703125 178.535156 181.488281 179.453125 184.390625 177.6875 C 184.933594 177.359375 185.402344 176.960938 185.796875 176.511719 L 185.933594 176.746094 C 187.773438 179.761719 191.707031 180.71875 194.722656 178.882813 C 196.472656 177.8125 197.53125 176.035156 197.746094 174.148438 C 199.085938 174.425781 200.53125 174.214844 201.792969 173.441406 C 203.722656 172.269531 204.6875 170.113281 204.445313 168.007813 C 205.089844 167.894531 205.722656 167.660156 206.3125 167.300781 C 208.875 165.738281 209.683594 162.402344 208.125 159.839844 C 206.5625 157.28125 203.222656 156.46875 200.664063 158.027344 "/>
<path style=" stroke:none;fill-rule:nonzero;fill:rgb(100%,100%,100%);fill-opacity:1;" d="M 191.199219 63.089844 L 191.207031 62.863281 C 191.34375 62.902344 191.488281 62.9375 191.632813 62.964844 C 191.488281 63 191.339844 63.042969 191.199219 63.089844 Z M 197.167969 54.105469 C 196.921875 54.355469 196.714844 54.625 196.535156 54.90625 C 196.421875 54.757813 196.289063 54.613281 196.148438 54.472656 C 194.183594 52.519531 191.003906 52.527344 189.046875 54.496094 C 187.972656 55.578125 187.492188 57.03125 187.605469 58.441406 C 186.175781 58.152344 184.636719 58.566406 183.53125 59.675781 C 182.191406 61.023438 181.886719 63.011719 182.609375 64.648438 C 182.070313 64.894531 181.566406 65.238281 181.128906 65.679688 C 179.191406 67.628906 179.203125 70.777344 181.152344 72.714844 C 183.101563 74.652344 186.25 74.644531 188.1875 72.695313 C 188.550781 72.328125 188.84375 71.925781 189.070313 71.492188 L 189.21875 71.652344 C 191.246094 73.671875 194.519531 73.65625 196.535156 71.632813 C 197.703125 70.449219 198.191406 68.855469 197.992188 67.328125 C 199.101563 67.285156 200.191406 66.84375 201.035156 65.992188 C 202.324219 64.699219 202.667969 62.816406 202.066406 61.210938 C 202.550781 60.996094 203.003906 60.691406 203.394531 60.296875 C 205.109375 58.574219 205.097656 55.796875 203.378906 54.085938 C 201.65625 52.378906 198.875 52.386719 197.167969 54.105469 "/>
<path style=" stroke:none;fill-rule:nonzero;fill:rgb(100%,100%,100%);fill-opacity:1;" d="M 256.503906 66.277344 C 256.515625 66.125 256.515625 65.976563 256.511719 65.820313 L 256.734375 65.894531 C 256.652344 66.019531 256.574219 66.148438 256.503906 66.277344 Z M 262.09375 63.765625 C 262.804688 62.472656 262.871094 60.859375 262.136719 59.457031 C 261.238281 57.757813 259.417969 56.855469 257.613281 57.0625 C 257.542969 56.464844 257.367188 55.875 257.070313 55.316406 C 255.777344 52.855469 252.730469 51.910156 250.269531 53.203125 C 247.808594 54.5 246.863281 57.539063 248.15625 60.003906 C 248.398438 60.460938 248.695313 60.867188 249.046875 61.214844 L 248.847656 61.3125 C 246.289063 62.65625 245.308594 65.820313 246.652344 68.378906 C 247.433594 69.867188 248.828125 70.820313 250.359375 71.097656 C 250.0625 72.175781 250.160156 73.367188 250.726563 74.4375 C 251.585938 76.070313 253.296875 76.976563 255.03125 76.886719 C 255.089844 77.414063 255.246094 77.945313 255.511719 78.441406 C 256.652344 80.617188 259.339844 81.449219 261.511719 80.3125 C 263.683594 79.171875 264.519531 76.480469 263.378906 74.3125 C 263.214844 73.996094 263.015625 73.714844 262.796875 73.460938 C 262.976563 73.394531 263.15625 73.308594 263.328125 73.21875 C 265.816406 71.910156 266.769531 68.839844 265.464844 66.355469 C 264.746094 64.984375 263.492188 64.078125 262.09375 63.765625 "/>
<path style=" stroke:none;fill-rule:nonzero;fill:rgb(100%,100%,100%);fill-opacity:1;" d="M 160.148438 151.980469 L 160.367188 151.910156 C 160.375 152.054688 160.394531 152.195313 160.414063 152.335938 C 160.332031 152.214844 160.242188 152.097656 160.148438 151.980469 Z M 170.414063 154.457031 C 170.105469 154.3125 169.785156 154.21875 169.464844 154.144531 C 169.5625 153.988281 169.648438 153.816406 169.734375 153.644531 C 170.871094 151.183594 169.796875 148.261719 167.332031 147.125 C 165.976563 146.5 164.480469 146.539063 163.222656 147.121094 C 163.011719 145.707031 162.109375 144.433594 160.726563 143.792969 C 159.035156 143.011719 157.105469 143.394531 155.839844 144.609375 C 155.4375 144.195313 154.953125 143.847656 154.398438 143.59375 C 151.957031 142.46875 149.066406 143.53125 147.9375 145.972656 C 146.8125 148.414063 147.878906 151.304688 150.316406 152.4375 C 150.769531 152.644531 151.238281 152.777344 151.710938 152.835938 L 151.617188 153.03125 C 150.445313 155.566406 151.554688 158.574219 154.09375 159.746094 C 155.5625 160.425781 157.195313 160.339844 158.535156 159.648438 C 158.945313 160.652344 159.71875 161.507813 160.78125 161.996094 C 162.398438 162.746094 164.246094 162.429688 165.527344 161.34375 C 165.882813 161.714844 166.3125 162.027344 166.808594 162.257813 C 168.964844 163.257813 171.515625 162.3125 172.511719 160.160156 C 173.503906 158.007813 172.566406 155.449219 170.414063 154.457031 "/>
<path style=" stroke:none;fill-rule:nonzero;fill:rgb(100%,100%,100%);fill-opacity:1;" d="M 235.65625 182.925781 C 235.574219 182.75 235.480469 182.578125 235.394531 182.410156 C 235.546875 182.523438 235.722656 182.632813 235.894531 182.734375 Z M 248.121094 177.488281 C 247.445313 177.4375 246.789063 177.492188 246.164063 177.640625 C 246.175781 177.542969 246.183594 177.449219 246.191406 177.351563 C 246.46875 173.585938 243.640625 170.304688 239.871094 170.027344 C 237.683594 169.867188 235.660156 170.753906 234.292969 172.261719 C 233.304688 171.191406 231.910156 170.476563 230.335938 170.359375 C 227.929688 170.179688 225.742188 171.457031 224.644531 173.441406 C 224.019531 173.140625 223.320313 172.945313 222.582031 172.898438 C 219.386719 172.65625 216.601563 175.0625 216.363281 178.261719 C 216.132813 181.457031 218.53125 184.242188 221.730469 184.476563 C 222.1875 184.515625 222.640625 184.484375 223.074219 184.421875 C 223.027344 184.664063 222.996094 184.925781 222.972656 185.183594 C 222.707031 188.839844 225.453125 192.027344 229.109375 192.296875 C 231.121094 192.441406 232.992188 191.683594 234.316406 190.347656 C 235.257813 192.03125 236.996094 193.21875 239.058594 193.371094 C 241.566406 193.554688 243.828125 192.152344 244.851563 190.011719 C 245.554688 190.347656 246.332031 190.558594 247.15625 190.617188 C 250.777344 190.882813 253.933594 188.160156 254.203125 184.535156 C 254.46875 180.914063 251.746094 177.761719 248.121094 177.488281 "/>
<path style=" stroke:none;fill-rule:nonzero;fill:rgb(100%,100%,100%);fill-opacity:1;" d="M 109.929688 66.101563 L 109.816406 65.878906 C 109.96875 65.84375 110.117188 65.800781 110.269531 65.753906 C 110.148438 65.859375 110.035156 65.976563 109.929688 66.101563 Z M 119.097656 58.660156 C 119.433594 58.210938 119.695313 57.691406 119.855469 57.117188 C 120.558594 54.613281 119.09375 52.023438 116.59375 51.324219 C 114.097656 50.628906 111.503906 52.089844 110.808594 54.589844 C 110.707031 54.945313 110.65625 55.308594 110.636719 55.664063 C 110.449219 55.585938 110.253906 55.519531 110.054688 55.464844 C 107.195313 54.664063 104.226563 56.335938 103.433594 59.195313 C 102.992188 60.765625 103.300781 62.371094 104.144531 63.628906 C 102.65625 64.109375 101.441406 65.300781 100.988281 66.910156 C 100.441406 68.867188 101.191406 70.886719 102.726563 72.035156 C 102.347656 72.546875 102.058594 73.128906 101.882813 73.773438 C 101.089844 76.605469 102.746094 79.539063 105.578125 80.332031 C 108.410156 81.121094 111.34375 79.464844 112.136719 76.636719 C 112.28125 76.105469 112.347656 75.574219 112.328125 75.058594 L 112.554688 75.125 C 115.496094 75.945313 118.550781 74.226563 119.367188 71.28125 C 119.847656 69.570313 119.46875 67.824219 118.488281 66.503906 C 119.496094 65.886719 120.289063 64.898438 120.628906 63.667969 C 121.15625 61.789063 120.492188 59.851563 119.097656 58.660156 "/>
<path style=" stroke:none;fill-rule:nonzero;fill:rgb(100%,100%,100%);fill-opacity:1;" d="M 115.898438 188.976563 C 115.636719 188.992188 115.378906 189.027344 115.132813 189.089844 C 115.148438 188.878906 115.15625 188.664063 115.144531 188.445313 C 115.011719 185.925781 112.855469 183.988281 110.335938 184.128906 C 108.1875 184.242188 106.464844 185.820313 106.085938 187.851563 C 105.484375 187.535156 104.796875 187.378906 104.070313 187.414063 C 102.484375 187.5 101.171875 188.511719 100.621094 189.894531 C 100.347656 189.859375 100.074219 189.847656 99.792969 189.859375 C 97.339844 189.992188 95.457031 192.089844 95.589844 194.539063 C 95.71875 196.992188 97.8125 198.875 100.269531 198.742188 C 101.109375 198.699219 101.886719 198.421875 102.535156 197.976563 L 102.535156 198.027344 C 102.664063 200.378906 104.671875 202.1875 107.023438 202.058594 C 108.59375 201.976563 109.921875 201.050781 110.59375 199.746094 C 111.015625 199.945313 111.496094 200.050781 112 200.019531 C 113.488281 199.941406 114.65625 198.765625 114.761719 197.316406 C 115.261719 197.484375 115.800781 197.5625 116.355469 197.53125 C 118.722656 197.40625 120.53125 195.390625 120.40625 193.027344 C 120.28125 190.660156 118.261719 188.851563 115.898438 188.976563 "/>
<path style=" stroke:none;fill-rule:nonzero;fill:rgb(100%,100%,100%);fill-opacity:1;" d="M 235.582031 40.296875 C 235.222656 40.355469 234.878906 40.4375 234.546875 40.550781 C 234.542969 40.261719 234.519531 39.964844 234.476563 39.667969 C 233.960938 36.230469 230.75 33.863281 227.3125 34.382813 C 224.382813 34.824219 222.230469 37.222656 221.980469 40.050781 C 221.117188 39.699219 220.148438 39.566406 219.15625 39.71875 C 216.996094 40.046875 215.328125 41.605469 214.753906 43.574219 C 214.378906 43.5625 214 43.582031 213.617188 43.640625 C 210.273438 44.144531 207.96875 47.265625 208.46875 50.609375 C 208.976563 53.953125 212.09375 56.257813 215.441406 55.753906 C 216.589844 55.578125 217.621094 55.097656 218.453125 54.402344 L 218.457031 54.472656 C 218.941406 57.683594 221.9375 59.890625 225.144531 59.40625 C 227.285156 59.085938 228.980469 57.640625 229.730469 55.761719 C 230.335938 55.984375 231.011719 56.0625 231.695313 55.953125 C 233.726563 55.648438 235.167969 53.878906 235.121094 51.882813 C 235.832031 52.046875 236.578125 52.085938 237.34375 51.96875 C 240.566406 51.480469 242.785156 48.476563 242.296875 45.253906 C 241.8125 42.03125 238.804688 39.8125 235.582031 40.296875 "/>
<path style=" stroke:none;fill-rule:nonzero;fill:rgb(100%,100%,100%);fill-opacity:1;" d="M 155.5 176.652344 C 155.167969 176.734375 154.855469 176.84375 154.550781 176.976563 C 154.527344 176.703125 154.480469 176.433594 154.414063 176.160156 C 153.644531 173 150.457031 171.0625 147.300781 171.832031 C 144.601563 172.484375 142.800781 174.898438 142.800781 177.558594 C 141.964844 177.304688 141.054688 177.265625 140.144531 177.484375 C 138.15625 177.96875 136.730469 179.5625 136.363281 181.441406 C 136.015625 181.464844 135.660156 181.515625 135.304688 181.601563 C 132.230469 182.351563 130.34375 185.449219 131.09375 188.523438 C 131.84375 191.597656 134.941406 193.484375 138.019531 192.734375 C 139.074219 192.476563 139.988281 191.941406 140.707031 191.226563 L 140.722656 191.292969 C 141.441406 194.242188 144.414063 196.050781 147.363281 195.332031 C 149.332031 194.851563 150.792969 193.367188 151.332031 191.554688 C 151.917969 191.707031 152.550781 191.722656 153.179688 191.570313 C 155.046875 191.113281 156.246094 189.347656 156.035156 187.484375 C 156.710938 187.578125 157.410156 187.554688 158.109375 187.382813 C 161.074219 186.660156 162.890625 183.675781 162.167969 180.710938 C 161.445313 177.75 158.460938 175.933594 155.5 176.652344 "/>
<path style=" stroke:none;fill-rule:nonzero;fill:rgb(100%,100%,100%);fill-opacity:1;" d="M 138.011719 131.4375 L 138.070313 131.398438 C 140.832031 129.652344 141.65625 125.992188 139.90625 123.226563 C 138.738281 121.386719 136.722656 120.40625 134.683594 120.480469 C 134.640625 119.828125 134.4375 119.179688 134.066406 118.589844 C 132.960938 116.835938 130.738281 116.222656 128.914063 117.078125 C 128.78125 116.359375 128.511719 115.652344 128.097656 114.996094 C 126.335938 112.222656 122.660156 111.394531 119.886719 113.148438 C 117.113281 114.90625 116.285156 118.582031 118.039063 121.355469 C 118.234375 121.664063 118.457031 121.949219 118.695313 122.210938 C 118.429688 122.335938 118.167969 122.472656 117.910156 122.632813 C 114.949219 124.507813 114.070313 128.429688 115.941406 131.386719 C 117.539063 133.914063 120.621094 134.925781 123.335938 134.007813 C 123.363281 134.949219 123.636719 135.894531 124.179688 136.742188 C 125.355469 138.605469 127.472656 139.511719 129.519531 139.238281 C 129.660156 139.589844 129.835938 139.9375 130.042969 140.265625 C 131.867188 143.148438 135.679688 144.007813 138.5625 142.183594 C 141.441406 140.359375 142.296875 136.546875 140.480469 133.664063 C 139.851563 132.675781 138.988281 131.921875 138.011719 131.4375 "/>
<path style=" stroke:none;fill-rule:nonzero;fill:rgb(100%,100%,100%);fill-opacity:1;" d="M 148.875 35.949219 C 147.71875 36.167969 146.699219 36.6875 145.882813 37.417969 L 145.871094 37.347656 C 145.273438 34.125 142.175781 31.996094 138.953125 32.59375 C 136.804688 32.996094 135.140625 34.511719 134.449219 36.429688 C 133.828125 36.230469 133.144531 36.175781 132.457031 36.304688 C 130.417969 36.679688 129.019531 38.515625 129.132813 40.53125 C 128.414063 40.390625 127.65625 40.378906 126.890625 40.519531 C 123.652344 41.121094 121.515625 44.230469 122.117188 47.46875 C 122.71875 50.707031 125.828125 52.84375 129.0625 52.246094 C 129.425781 52.179688 129.773438 52.078125 130.105469 51.953125 C 130.117188 52.246094 130.148438 52.542969 130.203125 52.84375 C 130.84375 56.292969 134.164063 58.574219 137.617188 57.9375 C 140.5625 57.390625 142.648438 54.898438 142.808594 52.03125 C 143.695313 52.355469 144.675781 52.449219 145.667969 52.269531 C 147.839844 51.863281 149.472656 50.234375 149.980469 48.226563 C 150.359375 48.226563 150.746094 48.191406 151.132813 48.121094 C 154.492188 47.496094 156.710938 44.269531 156.089844 40.90625 C 155.464844 37.546875 152.234375 35.328125 148.875 35.949219 "/>
<path style=" stroke:none;fill-rule:nonzero;fill:rgb(100%,100%,100%);fill-opacity:1;" d="M 301.214844 186.300781 C 300.898438 186.3125 300.582031 186.359375 300.28125 186.425781 C 300.308594 186.171875 300.316406 185.914063 300.304688 185.648438 C 300.179688 182.601563 297.601563 180.226563 294.550781 180.355469 C 291.949219 180.46875 289.847656 182.351563 289.359375 184.800781 C 288.640625 184.410156 287.804688 184.210938 286.929688 184.246094 C 285.011719 184.328125 283.410156 185.53125 282.722656 187.195313 C 282.398438 187.148438 282.0625 187.132813 281.722656 187.144531 C 278.753906 187.269531 276.449219 189.777344 276.574219 192.742188 C 276.695313 195.710938 279.203125 198.015625 282.171875 197.894531 C 283.191406 197.847656 284.132813 197.523438 284.925781 197 L 284.925781 197.0625 C 285.046875 199.90625 287.445313 202.117188 290.296875 202 C 292.195313 201.917969 293.8125 200.820313 294.644531 199.25 C 295.152344 199.5 295.730469 199.632813 296.339844 199.601563 C 298.140625 199.527344 299.570313 198.121094 299.71875 196.371094 C 300.320313 196.578125 300.96875 196.6875 301.644531 196.65625 C 304.503906 196.535156 306.726563 194.121094 306.605469 191.261719 C 306.488281 188.402344 304.070313 186.183594 301.214844 186.300781 "/>
<path style=" stroke:none;fill-rule:nonzero;fill:rgb(100%,100%,100%);fill-opacity:1;" d="M 260.535156 93.816406 C 257.933594 91.757813 254.164063 92.191406 252.105469 94.789063 C 251.875 95.082031 251.679688 95.386719 251.511719 95.699219 C 251.304688 95.484375 251.085938 95.285156 250.847656 95.09375 C 248.078125 92.898438 244.046875 93.363281 241.855469 96.132813 C 239.980469 98.496094 240.046875 101.769531 241.820313 104.046875 C 240.9375 104.390625 240.128906 104.964844 239.496094 105.765625 C 238.113281 107.507813 237.960938 109.820313 238.898438 111.683594 C 238.613281 111.933594 238.34375 112.210938 238.097656 112.519531 C 235.960938 115.222656 236.417969 119.140625 239.109375 121.273438 C 241.804688 123.40625 245.722656 122.953125 247.859375 120.261719 C 248.59375 119.335938 249.023438 118.261719 249.160156 117.167969 L 249.21875 117.214844 C 251.800781 119.265625 255.5625 118.828125 257.609375 116.242188 C 258.976563 114.515625 259.234375 112.265625 258.484375 110.351563 C 259.089844 110.09375 259.644531 109.683594 260.082031 109.128906 C 261.378906 107.492188 261.226563 105.175781 259.800781 103.722656 C 260.441406 103.351563 261.027344 102.859375 261.515625 102.246094 C 263.574219 99.644531 263.132813 95.871094 260.535156 93.816406 "/>
<path style=" stroke:none;fill-rule:nonzero;fill:rgb(100%,100%,100%);fill-opacity:1;" d="M 72.765625 196.9375 C 72.503906 196.976563 72.253906 197.050781 72.023438 197.144531 L 72.011719 197.046875 C 71.714844 194.988281 69.589844 193.589844 67.265625 193.921875 C 65.144531 194.230469 63.589844 195.878906 63.566406 197.734375 C 63.1875 197.675781 62.789063 197.667969 62.382813 197.726563 C 60.445313 198.007813 59.074219 199.625 59.324219 201.34375 C 59.546875 202.898438 61.019531 204.003906 62.734375 203.988281 C 63.285156 205.273438 64.78125 206.070313 66.402344 205.839844 C 67.714844 205.648438 68.761719 204.824219 69.195313 203.777344 C 69.722656 204.285156 70.511719 204.554688 71.351563 204.433594 C 72.703125 204.238281 73.65625 203.109375 73.480469 201.914063 C 73.46875 201.808594 73.441406 201.703125 73.410156 201.605469 L 73.441406 201.601563 C 74.890625 201.394531 75.917969 200.179688 75.734375 198.894531 C 75.546875 197.601563 74.21875 196.730469 72.765625 196.9375 "/>
<path style=" stroke:none;fill-rule:nonzero;fill:rgb(100%,100%,100%);fill-opacity:1;" d="M 240.582031 126.808594 C 238.742188 124.796875 235.414063 124.847656 233.148438 126.917969 C 232.734375 127.289063 232.390625 127.707031 232.105469 128.148438 L 231.96875 127.988281 C 229.03125 124.769531 223.707031 124.851563 220.078125 128.160156 C 216.761719 131.191406 216.007813 135.878906 218.148438 139.117188 C 217.425781 139.460938 216.730469 139.917969 216.09375 140.496094 C 213.070313 143.261719 212.601563 147.675781 215.050781 150.355469 C 217.269531 152.785156 221.113281 152.964844 224.066406 150.925781 C 226.539063 152.503906 230.066406 152.125 232.597656 149.820313 C 234.648438 147.941406 235.496094 145.285156 235.015625 142.960938 C 236.515625 143.222656 238.207031 142.753906 239.515625 141.558594 C 241.621094 139.632813 241.949219 136.558594 240.242188 134.6875 C 240.089844 134.519531 239.925781 134.378906 239.753906 134.238281 L 239.800781 134.203125 C 242.066406 132.132813 242.417969 128.820313 240.582031 126.808594 "/>
<path style=" stroke:none;fill-rule:nonzero;fill:rgb(100%,100%,100%);fill-opacity:1;" d="M 178.726563 51.664063 C 178.453125 51.464844 178.164063 51.308594 177.867188 51.191406 L 177.945313 51.089844 C 179.511719 48.945313 178.820313 45.777344 176.402344 44.011719 C 174.195313 42.394531 171.304688 42.515625 169.628906 44.183594 C 169.335938 43.792969 168.980469 43.433594 168.558594 43.125 C 166.542969 41.648438 163.847656 41.902344 162.546875 43.691406 C 161.363281 45.3125 161.722656 47.628906 163.292969 49.144531 C 162.652344 50.8125 163.300781 52.871094 164.988281 54.101563 C 166.355469 55.101563 168.042969 55.285156 169.375 54.71875 C 169.402344 55.644531 169.882813 56.597656 170.753906 57.234375 C 172.160156 58.261719 174.035156 58.082031 174.945313 56.839844 C 175.027344 56.726563 175.09375 56.609375 175.15625 56.492188 L 175.183594 56.515625 C 176.691406 57.621094 178.710938 57.429688 179.691406 56.089844 C 180.667969 54.75 180.238281 52.765625 178.726563 51.664063 "/>
<path style=" stroke:none;fill-rule:nonzero;fill:rgb(100%,100%,100%);fill-opacity:1;" d="M 343.410156 190.894531 C 343.101563 190.894531 342.804688 190.9375 342.523438 191.011719 L 342.527344 190.894531 C 342.519531 188.480469 340.304688 186.53125 337.585938 186.539063 C 335.097656 186.550781 333.046875 188.191406 332.71875 190.316406 C 332.292969 190.191406 331.839844 190.117188 331.363281 190.121094 C 329.09375 190.128906 327.257813 191.765625 327.269531 193.773438 C 327.273438 195.597656 328.785156 197.101563 330.753906 197.363281 C 331.183594 198.929688 332.769531 200.089844 334.660156 200.082031 C 336.203125 200.074219 337.539063 199.300781 338.210938 198.167969 C 338.726563 198.835938 339.59375 199.269531 340.574219 199.269531 C 342.15625 199.261719 343.433594 198.121094 343.429688 196.71875 C 343.429688 196.59375 343.414063 196.472656 343.394531 196.355469 L 343.429688 196.355469 C 345.132813 196.351563 346.503906 195.121094 346.5 193.613281 C 346.492188 192.105469 345.109375 190.886719 343.410156 190.894531 "/>
<path style=" stroke:none;fill-rule:nonzero;fill:rgb(100%,100%,100%);fill-opacity:1;" d="M 119.03125 94.894531 C 119.023438 94.019531 118.890625 93.113281 118.601563 92.214844 C 117.242188 87.929688 113.050781 85.433594 109.253906 86.648438 C 105.808594 87.742188 103.863281 91.496094 104.539063 95.375 C 101.839844 97.113281 100.59375 100.804688 101.730469 104.386719 C 102.660156 107.289063 104.917969 109.355469 107.460938 109.945313 C 106.511719 111.324219 106.199219 113.222656 106.789063 115.070313 C 107.738281 118.058594 110.65625 119.800781 113.308594 118.957031 C 113.539063 118.882813 113.761719 118.777344 113.972656 118.675781 L 113.988281 118.738281 C 115.015625 121.953125 118.152344 123.820313 121 122.914063 C 123.851563 122.011719 125.332031 118.664063 124.308594 115.449219 C 124.125 114.867188 123.867188 114.339844 123.5625 113.851563 L 123.78125 113.78125 C 128.335938 112.335938 130.707031 106.992188 129.070313 101.855469 C 127.570313 97.152344 123.246094 94.253906 119.03125 94.894531 "/>
<path style=" stroke:none;fill-rule:nonzero;fill:rgb(100%,100%,100%);fill-opacity:1;" d="M 19.613281 380.441406 C 21.140625 380.402344 22.621094 380.21875 24.058594 379.914063 C 23.917969 381.128906 23.859375 382.363281 23.894531 383.621094 C 24.28125 398.175781 36.398438 389.660156 50.953125 389.269531 C 63.359375 388.9375 73.527344 400.082031 76.015625 388.460938 C 79.441406 390.347656 83.390625 391.378906 87.578125 391.269531 C 96.726563 391.023438 104.464844 385.398438 107.851563 377.503906 C 109.402344 377.753906 110.996094 377.867188 112.628906 377.824219 C 126.785156 377.445313 137.960938 375.660156 137.578125 361.5 C 137.199219 347.339844 125.414063 336.167969 111.253906 336.542969 C 106.390625 336.675781 101.871094 338.152344 98.058594 340.609375 C 98.058594 340.511719 98.058594 340.414063 98.058594 340.316406 C 97.695313 326.734375 86.390625 316.019531 72.808594 316.382813 C 63.734375 316.625 55.949219 321.75 51.882813 329.171875 C 49.460938 327.945313 46.710938 327.285156 43.804688 327.359375 C 35.214844 327.59375 28.300781 334.207031 27.464844 342.539063 C 24.609375 341.492188 21.519531 340.949219 18.292969 341.039063 C 10.921875 341.234375 4.390625 344.644531 0 349.890625 L 0 377.710938 C 4.679688 380.484375 11.765625 380.652344 19.613281 380.441406 "/>
<g clip-path="url(#clip3)" clip-rule="nonzero">
<path style=" stroke:none;fill-rule:nonzero;fill:rgb(100%,100%,100%);fill-opacity:1;" d="M 517.199219 338.128906 C 512.171875 338.265625 507.5 339.789063 503.5625 342.332031 C 503.5625 342.230469 503.5625 342.128906 503.5625 342.027344 C 503.183594 327.988281 491.496094 316.910156 477.460938 317.285156 C 468.078125 317.535156 460.03125 322.835938 455.824219 330.511719 C 453.324219 329.238281 450.480469 328.554688 447.476563 328.636719 C 438.597656 328.875 431.449219 335.710938 430.585938 344.324219 C 427.636719 343.242188 424.4375 342.683594 421.105469 342.773438 C 407.003906 343.148438 395.875 354.886719 396.253906 368.992188 C 396.628906 383.09375 408.367188 384.222656 422.472656 383.847656 C 424.046875 383.804688 425.578125 383.613281 427.066406 383.300781 C 426.921875 384.554688 426.859375 385.832031 426.894531 387.128906 C 427.296875 402.175781 439.820313 394.046875 454.863281 393.644531 C 467.691406 393.300781 478.199219 400.148438 480.773438 388.132813 C 484.3125 390.082031 488.394531 395.152344 492.726563 395.035156 C 502.1875 394.78125 510.183594 388.96875 513.683594 380.804688 C 515.285156 381.0625 516.9375 381.183594 518.617188 381.136719 C 533.257813 380.746094 544.804688 378.5625 544.414063 363.925781 C 544.023438 349.285156 531.839844 337.738281 517.199219 338.128906 "/>
</g>
<path style=" stroke:none;fill-rule:nonzero;fill:rgb(100%,100%,100%);fill-opacity:1;" d="M 59.175781 275.894531 C 59.269531 275.769531 59.363281 275.644531 59.453125 275.511719 C 59.644531 275.742188 59.847656 275.96875 60.058594 276.179688 C 59.769531 276.070313 59.472656 275.976563 59.175781 275.894531 Z M 79.667969 267.507813 C 78.96875 267.644531 78.300781 267.859375 77.675781 268.144531 C 77.648438 267.753906 77.59375 267.355469 77.519531 266.960938 C 76.425781 261.371094 71.011719 257.722656 65.421875 258.8125 C 62.34375 259.414063 59.859375 261.324219 58.425781 263.851563 C 56.332031 261.722656 53.242188 260.648438 50.089844 261.265625 C 46.257813 262.011719 43.453125 265.03125 42.789063 268.652344 C 41.597656 268.445313 40.347656 268.445313 39.089844 268.691406 C 34.984375 269.492188 31.9375 272.652344 31.078125 276.488281 L 90.40625 276.488281 C 90.417969 275.875 90.363281 275.253906 90.242188 274.625 C 89.289063 269.738281 84.554688 266.554688 79.667969 267.507813 "/>
<path style=" stroke:none;fill-rule:nonzero;fill:rgb(100%,100%,100%);fill-opacity:1;" d="M 302.765625 285.28125 C 302.835938 285.183594 302.910156 285.082031 302.980469 284.980469 C 303.128906 285.160156 303.289063 285.335938 303.453125 285.503906 C 303.226563 285.417969 302.996094 285.347656 302.765625 285.28125 Z M 318.773438 278.726563 C 318.226563 278.835938 317.703125 279.003906 317.21875 279.226563 C 317.191406 278.917969 317.152344 278.609375 317.09375 278.300781 C 316.238281 273.933594 312.007813 271.085938 307.644531 271.9375 C 305.238281 272.40625 303.296875 273.898438 302.179688 275.875 C 300.539063 274.210938 298.128906 273.371094 295.664063 273.851563 C 292.671875 274.4375 290.480469 276.796875 289.964844 279.621094 C 289.03125 279.460938 288.058594 279.464844 287.070313 279.652344 C 283.863281 280.277344 281.484375 282.746094 280.8125 285.742188 L 327.160156 285.742188 C 327.167969 285.265625 327.128906 284.777344 327.03125 284.289063 C 326.285156 280.472656 322.589844 277.980469 318.773438 278.726563 "/>
<path style=" stroke:none;fill-rule:nonzero;fill:rgb(100%,100%,100%);fill-opacity:1;" d="M 374.546875 304.316406 L 374.730469 304.0625 C 374.855469 304.214844 374.992188 304.363281 375.128906 304.503906 C 374.9375 304.433594 374.742188 304.367188 374.546875 304.316406 Z M 388.101563 298.769531 C 387.636719 298.855469 387.195313 299 386.78125 299.1875 C 386.765625 298.929688 386.726563 298.667969 386.675781 298.40625 C 385.957031 294.707031 382.375 292.296875 378.679688 293.019531 C 376.644531 293.414063 375 294.679688 374.050781 296.351563 C 372.664063 294.941406 370.621094 294.230469 368.535156 294.640625 C 366.003906 295.132813 364.144531 297.132813 363.710938 299.523438 C 362.921875 299.390625 362.097656 299.390625 361.265625 299.550781 C 358.546875 300.082031 356.53125 302.171875 355.964844 304.707031 L 395.203125 304.707031 C 395.207031 304.300781 395.175781 303.890625 395.089844 303.476563 C 394.460938 300.242188 391.332031 298.136719 388.101563 298.769531 "/>
<path style=" stroke:none;fill-rule:nonzero;fill:rgb(100%,100%,100%);fill-opacity:1;" d="M 494.234375 285.652344 C 494.339844 285.515625 494.441406 285.371094 494.539063 285.230469 C 494.75 285.484375 494.976563 285.730469 495.207031 285.964844 C 494.890625 285.847656 494.5625 285.742188 494.234375 285.652344 Z M 516.804688 276.414063 C 516.03125 276.5625 515.296875 276.800781 514.609375 277.113281 C 514.578125 276.683594 514.519531 276.25 514.433594 275.8125 C 513.234375 269.652344 507.269531 265.640625 501.113281 266.839844 C 497.726563 267.503906 494.988281 269.605469 493.410156 272.390625 C 491.101563 270.046875 487.699219 268.863281 484.226563 269.539063 C 480.011719 270.363281 476.917969 273.6875 476.1875 277.675781 C 474.875 277.449219 473.503906 277.449219 472.113281 277.71875 C 467.59375 278.601563 464.238281 282.082031 463.292969 286.300781 L 528.628906 286.300781 C 528.640625 285.628906 528.582031 284.945313 528.445313 284.253906 C 527.394531 278.871094 522.183594 275.363281 516.804688 276.414063 "/>
<path style=" stroke:none;fill-rule:nonzero;fill:rgb(100%,100%,100%);fill-opacity:1;" d="M 534.164063 180.054688 C 534.164063 180.054688 533.414063 176.664063 523.003906 173.601563 C 512.589844 170.539063 425.570313 185.363281 378.160156 188.238281 C 373.394531 188.527344 373.550781 194.921875 375.242188 196.285156 C 384.230469 203.515625 413.96875 206.433594 440.496094 203.890625 C 483.242188 199.792969 537.800781 194.535156 541.1875 188.703125 C 545.359375 181.515625 534.164063 180.054688 534.164063 180.054688 "/>
<path style=" stroke:none;fill-rule:nonzero;fill:rgb(77.34375%,77.34375%,77.34375%);fill-opacity:1;" d="M 529.777344 189.761719 C 519.296875 191.691406 497.808594 194.71875 472.230469 197.6875 C 446.644531 200.660156 423.195313 201.949219 411.066406 201.214844 C 402.527344 200.695313 381.230469 198.433594 374.199219 193.789063 C 374.316406 194.894531 374.699219 195.851563 375.242188 196.285156 C 384.230469 203.515625 413.96875 206.433594 440.496094 203.890625 C 483.242188 199.792969 537.800781 194.535156 541.1875 188.703125 C 542.148438 187.050781 542.292969 185.699219 541.949219 184.601563 C 541.949219 184.601563 540.234375 187.828125 529.777344 189.761719 "/>
<path style=" stroke:none;fill-rule:nonzero;fill:rgb(0%,27.43988%,40.795898%);fill-opacity:1;" d="M 380.179688 166.046875 C 379.136719 164.492188 366.640625 167.039063 366.640625 167.039063 L 381.421875 189.953125 C 381.421875 189.953125 409.765625 190.058594 406.433594 187.304688 C 400.449219 182.359375 381.386719 167.839844 380.179688 166.046875 "/>
<path style=" stroke:none;fill-rule:nonzero;fill:rgb(61.131287%,61.131287%,60.742188%);fill-opacity:1;" d="M 442.238281 209.105469 C 442.800781 214.332031 455.699219 213.726563 461.285156 213.214844 L 460.628906 207.125 L 442.238281 209.105469 "/>
<path style=" stroke:none;fill-rule:nonzero;fill:rgb(0%,21.166992%,27.830505%);fill-opacity:1;" d="M 460.628906 207.125 L 461.285156 213.214844 C 462.839844 213.070313 463.828125 212.9375 463.828125 212.9375 L 463.171875 206.851563 L 460.628906 207.125 "/>
<path style=" stroke:none;fill-rule:nonzero;fill:rgb(77.34375%,77.34375%,77.34375%);fill-opacity:1;" d="M 442.238281 209.105469 L 460.628906 207.125 L 459.976563 201.03125 C 454.410156 201.722656 441.675781 203.878906 442.238281 209.105469 "/>
<path style=" stroke:none;fill-rule:nonzero;fill:rgb(0%,27.43988%,40.795898%);fill-opacity:1;" d="M 459.976563 201.03125 L 460.628906 207.125 L 463.171875 206.851563 L 462.519531 200.761719 C 462.519531 200.761719 461.523438 200.84375 459.976563 201.03125 "/>
<path style=" stroke:none;fill-rule:nonzero;fill:rgb(52.539063%,52.539063%,52.539063%);fill-opacity:1;" d="M 446.839844 212.789063 L 454.132813 207.753906 L 442.234375 209.035156 C 442.558594 212.050781 447.019531 212.675781 446.839844 212.789063 "/>
<path style=" stroke:none;fill-rule:nonzero;fill:rgb(69.334412%,69.334412%,69.334412%);fill-opacity:1;" d="M 442.234375 209.035156 L 454.132813 207.753906 L 460.1875 203.730469 L 460.15625 203.496094 C 454.410156 204.351563 441.734375 204.410156 442.234375 209.035156 "/>
<path style=" stroke:none;fill-rule:nonzero;fill:rgb(96.09375%,96.09375%,96.09375%);fill-opacity:1;" d="M 383.03125 196.667969 L 371.191406 203.140625 C 371.191406 203.140625 384.527344 202.351563 385.378906 201.90625 C 386.355469 201.398438 403.910156 196.257813 409.359375 194.5625 C 412.394531 193.617188 383.03125 196.667969 383.03125 196.667969 "/>
<path style=" stroke:none;fill-rule:nonzero;fill:rgb(0%,27.43988%,40.795898%);fill-opacity:1;" d="M 371.191406 203.140625 L 374.5625 202.929688 L 386.046875 196.347656 L 383.03125 196.667969 L 371.191406 203.140625 "/>
<path style=" stroke:none;fill-rule:nonzero;fill:rgb(85.15625%,85.15625%,85.15625%);fill-opacity:1;" d="M 397.007813 199.792969 L 409.566406 194.433594 L 393.667969 199.289063 Z M 397.007813 199.792969 "/>
<path style=" stroke:none;fill-rule:nonzero;fill:rgb(85.15625%,85.15625%,85.15625%);fill-opacity:1;" d="M 482.878906 196.453125 L 492.136719 190.230469 L 475.675781 197.273438 Z M 482.878906 196.453125 "/>
<path style=" stroke:none;fill-rule:nonzero;fill:rgb(96.09375%,96.09375%,96.09375%);fill-opacity:1;" d="M 454.464844 195.039063 L 409.925781 219.199219 C 416.535156 218.527344 425.882813 217.4375 426.71875 216.570313 C 428.226563 215.007813 482.925781 195.691406 491.601563 190.625 C 495.34375 188.441406 467.324219 192.90625 454.464844 195.039063 "/>
<path style=" stroke:none;fill-rule:nonzero;fill:rgb(0%,27.43988%,40.795898%);fill-opacity:1;" d="M 403.382813 219.820313 C 403.382813 219.820313 406.226563 219.578125 409.925781 219.199219 L 454.464844 195.039063 C 450.710938 195.660156 448.246094 196.085938 448.246094 196.085938 L 403.382813 219.820313 "/>
<path style=" stroke:none;fill-rule:nonzero;fill:rgb(23.535156%,23.535156%,23.143005%);fill-opacity:1;" d="M 418.960938 191.269531 L 418.191406 191.355469 C 417.664063 191.421875 417.289063 191.894531 417.351563 192.421875 L 417.609375 194.65625 C 417.671875 195.183594 418.144531 195.5625 418.671875 195.5 L 419.441406 195.410156 C 419.96875 195.351563 420.34375 194.875 420.28125 194.347656 L 420.023438 192.113281 C 419.960938 191.585938 419.484375 191.207031 418.960938 191.269531 "/>
<path style=" stroke:none;fill-rule:nonzero;fill:rgb(23.535156%,23.535156%,23.143005%);fill-opacity:1;" d="M 423.339844 190.757813 L 422.574219 190.851563 C 422.046875 190.910156 421.667969 191.386719 421.730469 191.914063 L 421.988281 194.148438 C 422.050781 194.675781 422.527344 195.054688 423.054688 194.992188 L 423.820313 194.898438 C 424.347656 194.839844 424.726563 194.363281 424.664063 193.839844 L 424.40625 191.605469 C 424.34375 191.074219 423.867188 190.699219 423.339844 190.757813 "/>
<path style=" stroke:none;fill-rule:nonzero;fill:rgb(23.535156%,23.535156%,23.143005%);fill-opacity:1;" d="M 427.722656 190.25 L 426.953125 190.339844 C 426.425781 190.402344 426.050781 190.878906 426.113281 191.402344 L 426.371094 193.640625 C 426.433594 194.164063 426.90625 194.542969 427.4375 194.480469 L 428.203125 194.394531 C 428.730469 194.332031 429.105469 193.855469 429.046875 193.332031 L 428.785156 191.09375 C 428.722656 190.566406 428.246094 190.191406 427.722656 190.25 "/>
<path style=" stroke:none;fill-rule:nonzero;fill:rgb(23.535156%,23.535156%,23.143005%);fill-opacity:1;" d="M 432.101563 189.742188 L 431.335938 189.832031 C 430.808594 189.894531 430.433594 190.371094 430.492188 190.894531 L 430.75 193.132813 C 430.8125 193.65625 431.289063 194.035156 431.8125 193.976563 L 432.582031 193.886719 C 433.109375 193.824219 433.488281 193.347656 433.425781 192.824219 L 433.164063 190.585938 C 433.105469 190.058594 432.628906 189.683594 432.101563 189.742188 "/>
<path style=" stroke:none;fill-rule:nonzero;fill:rgb(23.535156%,23.535156%,23.143005%);fill-opacity:1;" d="M 436.484375 189.230469 L 435.714844 189.320313 C 435.1875 189.382813 434.8125 189.859375 434.875 190.390625 L 435.132813 192.625 C 435.195313 193.148438 435.667969 193.527344 436.195313 193.464844 L 436.964844 193.378906 C 437.488281 193.316406 437.867188 192.839844 437.804688 192.3125 L 437.546875 190.078125 C 437.484375 189.550781 437.011719 189.175781 436.484375 189.230469 "/>
<path style=" stroke:none;fill-rule:nonzero;fill:rgb(23.535156%,23.535156%,23.143005%);fill-opacity:1;" d="M 440.863281 188.726563 L 440.09375 188.816406 C 439.570313 188.875 439.191406 189.351563 439.253906 189.878906 L 439.511719 192.117188 C 439.574219 192.640625 440.050781 193.019531 440.578125 192.957031 L 441.34375 192.867188 C 441.871094 192.808594 442.246094 192.332031 442.1875 191.804688 L 441.925781 189.570313 C 441.863281 189.042969 441.390625 188.664063 440.863281 188.726563 "/>
<path style=" stroke:none;fill-rule:nonzero;fill:rgb(23.535156%,23.535156%,23.143005%);fill-opacity:1;" d="M 445.246094 188.21875 L 444.476563 188.304688 C 443.949219 188.367188 443.574219 188.847656 443.636719 189.371094 L 443.894531 191.605469 C 443.953125 192.132813 444.433594 192.507813 444.957031 192.449219 L 445.726563 192.359375 C 446.253906 192.300781 446.628906 191.820313 446.570313 191.296875 L 446.308594 189.0625 C 446.246094 188.53125 445.769531 188.15625 445.246094 188.21875 "/>
<path style=" stroke:none;fill-rule:nonzero;fill:rgb(23.535156%,23.535156%,23.143005%);fill-opacity:1;" d="M 449.625 187.710938 L 448.855469 187.796875 C 448.332031 187.859375 447.953125 188.335938 448.015625 188.863281 L 448.273438 191.097656 C 448.335938 191.621094 448.8125 192 449.339844 191.9375 L 450.105469 191.851563 C 450.632813 191.789063 451.011719 191.3125 450.945313 190.785156 L 450.6875 188.554688 C 450.628906 188.027344 450.148438 187.644531 449.625 187.710938 "/>
<path style=" stroke:none;fill-rule:nonzero;fill:rgb(23.535156%,23.535156%,23.143005%);fill-opacity:1;" d="M 454.007813 187.199219 L 453.238281 187.289063 C 452.714844 187.351563 452.335938 187.828125 452.394531 188.355469 L 452.65625 190.589844 C 452.71875 191.113281 453.195313 191.492188 453.71875 191.429688 L 454.488281 191.339844 C 455.011719 191.28125 455.390625 190.808594 455.328125 190.277344 L 455.070313 188.042969 C 455.007813 187.519531 454.53125 187.136719 454.007813 187.199219 "/>
<path style=" stroke:none;fill-rule:nonzero;fill:rgb(23.535156%,23.535156%,23.143005%);fill-opacity:1;" d="M 458.386719 186.691406 L 457.621094 186.78125 C 457.09375 186.839844 456.714844 187.316406 456.777344 187.84375 L 457.035156 190.082031 C 457.097656 190.605469 457.574219 190.984375 458.101563 190.921875 L 458.867188 190.835938 C 459.394531 190.773438 459.773438 190.296875 459.710938 189.769531 L 459.453125 187.535156 C 459.390625 187.011719 458.914063 186.632813 458.386719 186.691406 "/>
<path style=" stroke:none;fill-rule:nonzero;fill:rgb(23.535156%,23.535156%,23.143005%);fill-opacity:1;" d="M 462.769531 186.183594 L 462 186.269531 C 461.472656 186.332031 461.097656 186.8125 461.15625 187.335938 L 461.417969 189.574219 C 461.480469 190.101563 461.953125 190.476563 462.480469 190.414063 L 463.25 190.324219 C 463.773438 190.265625 464.152344 189.785156 464.089844 189.261719 L 463.832031 187.023438 C 463.769531 186.503906 463.296875 186.121094 462.769531 186.183594 "/>
<path style=" stroke:none;fill-rule:nonzero;fill:rgb(23.535156%,23.535156%,23.143005%);fill-opacity:1;" d="M 467.148438 185.675781 L 466.382813 185.761719 C 465.855469 185.824219 465.480469 186.304688 465.539063 186.828125 L 465.800781 189.0625 C 465.859375 189.589844 466.335938 189.96875 466.863281 189.902344 L 467.632813 189.816406 C 468.15625 189.757813 468.53125 189.277344 468.472656 188.757813 L 468.210938 186.519531 C 468.152344 185.992188 467.675781 185.613281 467.148438 185.675781 "/>
<path style=" stroke:none;fill-rule:nonzero;fill:rgb(23.535156%,23.535156%,23.143005%);fill-opacity:1;" d="M 471.53125 185.164063 L 470.761719 185.257813 C 470.234375 185.316406 469.859375 185.796875 469.917969 186.320313 L 470.179688 188.558594 C 470.238281 189.078125 470.714844 189.460938 471.242188 189.394531 L 472.011719 189.308594 C 472.539063 189.246094 472.914063 188.769531 472.851563 188.246094 L 472.59375 186.011719 C 472.53125 185.480469 472.054688 185.101563 471.53125 185.164063 "/>
<path style=" stroke:none;fill-rule:nonzero;fill:rgb(23.535156%,23.535156%,23.143005%);fill-opacity:1;" d="M 475.910156 184.65625 L 475.140625 184.746094 C 474.617188 184.808594 474.238281 185.285156 474.300781 185.8125 L 474.558594 188.046875 C 474.621094 188.570313 475.097656 188.949219 475.621094 188.890625 L 476.390625 188.800781 C 476.917969 188.738281 477.296875 188.265625 477.234375 187.734375 L 476.972656 185.5 C 476.910156 184.976563 476.4375 184.597656 475.910156 184.65625 "/>
<path style=" stroke:none;fill-rule:nonzero;fill:rgb(23.535156%,23.535156%,23.143005%);fill-opacity:1;" d="M 480.289063 184.148438 L 479.523438 184.238281 C 478.996094 184.296875 478.617188 184.777344 478.683594 185.304688 L 478.9375 187.539063 C 479.003906 188.0625 479.476563 188.441406 480.003906 188.382813 L 480.769531 188.292969 C 481.296875 188.230469 481.675781 187.757813 481.613281 187.226563 L 481.355469 184.992188 C 481.292969 184.464844 480.816406 184.089844 480.289063 184.148438 "/>
<path style=" stroke:none;fill-rule:nonzero;fill:rgb(23.535156%,23.535156%,23.143005%);fill-opacity:1;" d="M 484.671875 183.644531 L 483.902344 183.726563 C 483.378906 183.789063 483.003906 184.269531 483.0625 184.792969 L 483.320313 187.027344 C 483.382813 187.554688 483.859375 187.933594 484.386719 187.871094 L 485.152344 187.78125 C 485.679688 187.722656 486.054688 187.246094 485.996094 186.71875 L 485.734375 184.480469 C 485.675781 183.957031 485.199219 183.578125 484.671875 183.644531 "/>
<path style=" stroke:none;fill-rule:nonzero;fill:rgb(23.535156%,23.535156%,23.143005%);fill-opacity:1;" d="M 489.054688 183.132813 L 488.28125 183.222656 C 487.757813 183.28125 487.382813 183.761719 487.445313 184.285156 L 487.703125 186.519531 C 487.761719 187.050781 488.238281 187.425781 488.765625 187.363281 L 489.535156 187.273438 C 490.058594 187.214844 490.4375 186.734375 490.378906 186.214844 L 490.117188 183.976563 C 490.054688 183.449219 489.578125 183.070313 489.054688 183.132813 "/>
<path style=" stroke:none;fill-rule:nonzero;fill:rgb(23.535156%,23.535156%,23.143005%);fill-opacity:1;" d="M 493.433594 182.621094 L 492.664063 182.714844 C 492.140625 182.773438 491.761719 183.253906 491.824219 183.777344 L 492.082031 186.015625 C 492.144531 186.539063 492.621094 186.914063 493.148438 186.855469 L 493.914063 186.765625 C 494.441406 186.703125 494.816406 186.226563 494.757813 185.703125 L 494.496094 183.46875 C 494.4375 182.9375 493.960938 182.5625 493.433594 182.621094 "/>
<path style=" stroke:none;fill-rule:nonzero;fill:rgb(23.535156%,23.535156%,23.143005%);fill-opacity:1;" d="M 497.8125 182.113281 L 497.046875 182.203125 C 496.519531 182.265625 496.144531 182.742188 496.203125 183.269531 L 496.464844 185.507813 C 496.527344 186.03125 497 186.40625 497.527344 186.347656 L 498.296875 186.257813 C 498.820313 186.195313 499.199219 185.722656 499.136719 185.191406 L 498.878906 182.957031 C 498.820313 182.429688 498.339844 182.054688 497.8125 182.113281 "/>
<path style=" stroke:none;fill-rule:nonzero;fill:rgb(23.535156%,23.535156%,23.143005%);fill-opacity:1;" d="M 502.195313 181.605469 L 501.429688 181.695313 C 500.902344 181.757813 500.523438 182.234375 500.585938 182.761719 L 500.84375 184.996094 C 500.90625 185.519531 501.382813 185.898438 501.90625 185.839844 L 502.675781 185.75 C 503.203125 185.6875 503.578125 185.210938 503.519531 184.6875 L 503.257813 182.449219 C 503.199219 181.921875 502.722656 181.546875 502.195313 181.605469 "/>
<path style=" stroke:none;fill-rule:nonzero;fill:rgb(23.535156%,23.535156%,23.143005%);fill-opacity:1;" d="M 506.574219 181.097656 L 505.808594 181.1875 C 505.28125 181.25 504.90625 181.726563 504.96875 182.253906 L 505.226563 184.488281 C 505.289063 185.015625 505.761719 185.390625 506.289063 185.328125 L 507.058594 185.242188 C 507.582031 185.179688 507.960938 184.703125 507.898438 184.179688 L 507.640625 181.941406 C 507.578125 181.414063 507.101563 181.035156 506.574219 181.097656 "/>
<path style=" stroke:none;fill-rule:nonzero;fill:rgb(23.535156%,23.535156%,23.143005%);fill-opacity:1;" d="M 510.957031 180.589844 L 510.191406 180.675781 C 509.664063 180.738281 509.285156 181.21875 509.347656 181.742188 L 509.609375 183.976563 C 509.667969 184.507813 510.144531 184.882813 510.671875 184.820313 L 511.4375 184.730469 C 511.964844 184.671875 512.34375 184.195313 512.28125 183.667969 L 512.023438 181.433594 C 511.960938 180.902344 511.480469 180.527344 510.957031 180.589844 "/>
<path style=" stroke:none;fill-rule:nonzero;fill:rgb(23.535156%,23.535156%,23.143005%);fill-opacity:1;" d="M 515.339844 180.082031 L 514.570313 180.167969 C 514.042969 180.230469 513.667969 180.710938 513.730469 181.230469 L 513.988281 183.46875 C 514.050781 183.996094 514.523438 184.371094 515.050781 184.3125 L 515.820313 184.222656 C 516.34375 184.160156 516.722656 183.6875 516.660156 183.160156 L 516.402344 180.925781 C 516.34375 180.398438 515.863281 180.019531 515.339844 180.082031 "/>
<path style=" stroke:none;fill-rule:nonzero;fill:rgb(23.535156%,23.535156%,23.143005%);fill-opacity:1;" d="M 522.957031 177.101563 C 523.132813 178.621094 523.625 180.890625 523.625 180.890625 C 528.101563 180.308594 532.214844 180.007813 532.214844 180.007813 C 532.214844 180.007813 527.503906 175.6875 522.957031 177.101563 "/>
<path style=" stroke:none;fill-rule:nonzero;fill:rgb(100%,100%,100%);fill-opacity:1;" d="M 526.4375 175.652344 L 527.359375 182.71875 L 528.605469 182.550781 L 527.6875 175.488281 L 526.4375 175.652344 "/>
<g clip-path="url(#clip4)" clip-rule="nonzero">
<path style=" stroke:none;fill-rule:nonzero;fill:rgb(100%,100%,100%);fill-opacity:1;" d="M 0 396.847656 L 595.277344 396.847656 L 595.277344 361.984375 L 0 361.984375 L 0 396.847656 "/>
</g>
</g>
</svg>
